<mxfile host="app.diagrams.net" modified="2023-12-20T07:53:00.122Z" agent="Mozilla/5.0 (Macintosh; Intel Mac OS X 10.15; rv:120.0) Gecko/20100101 Firefox/120.0" etag="aBKTHjHVtiN9yAoWRSrR" version="22.1.11" type="github">
  <diagram name="第 1 页" id="htOfYTE-58FHOiJktm81">
    <mxGraphModel dx="954" dy="525" grid="1" gridSize="10" guides="1" tooltips="1" connect="1" arrows="1" fold="1" page="1" pageScale="1" pageWidth="827" pageHeight="1169" math="0" shadow="0">
      <root>
        <mxCell id="0" />
        <mxCell id="1" parent="0" />
        <mxCell id="LYkT1Se8tj6PZ8BPIfB7-1" value="" style="rounded=0;whiteSpace=wrap;html=1;" vertex="1" parent="1">
          <mxGeometry x="150" y="160" width="120" height="60" as="geometry" />
        </mxCell>
      </root>
    </mxGraphModel>
  </diagram>
</mxfile>
